<svg fill="#ffffff" xmlns="http://www.w3.org/2000/svg" xmlns:xlink="http://www.w3.org/1999/xlink" version="1.1" x="0px" y="0px" viewBox="0 0 1024 1280" style="enable-background:new 0 0 1024 1024;" xml:space="preserve"><g><path d="M543.7,823.8c-4.3,4.8-8.9,9.3-13.8,13.5c-0.9,0.7-1.7,1.4-2.6,2.1c-4.4,3.7,4.6-3.1-0.2,0.1   c-2.6,1.8-5.2,3.6-8,5.2c-2.2,1.3-4.5,2.5-6.8,3.6c-0.5,0.2-0.9,0.4-1.4,0.6c-2.4,1.1-1.8,0.8,1.9-0.8c-1,0.1-2.4,0.9-3.5,1.3   c-2.5,0.9-5.1,1.6-7.7,2.2c-0.9,0.2-1.9,0.4-2.8,0.6c-6.9,1.3,4-0.2-0.5,0.1c-3.9,0.2-7.9,0.3-11.8,0c-0.9-0.1-1.9-0.2-2.8-0.3   c8.4,0.5,5.8,0.9,3.9,0.5c-1.8-0.4-3.7-0.7-5.5-1.1c-3.4-0.8-6.6-2.1-9.9-3.2c-3.4-1.2,3.6,1.5,3.3,1.4c-0.9-0.2-1.9-0.8-2.7-1.2   c-1.8-0.9-3.5-1.8-5.3-2.8c-3.1-1.8-6.1-3.7-9.1-5.8c-0.7-0.5-1.4-1-2.1-1.6c-3.5-2.6,5.1,4.1,1.7,1.3c-1.7-1.4-3.4-2.8-5-4.3   c-6.3-5.6-12-11.8-17.3-18.3c-0.7-0.8-1.3-1.6-1.9-2.4c5.1,5.9,1.9,2.5,0.8,1.1c-1.3-1.7-2.5-3.5-3.8-5.2c-2.8-4-5.5-8.1-8.1-12.3   c-5.5-9-10.5-18.3-15.1-27.8c-2.2-4.6-4.4-9.3-6.4-13.9c-0.2-0.5-0.4-1-0.6-1.4c-1.1-2.5-0.8-1.9,0.7,1.6c-0.1-1.1-1.1-2.6-1.5-3.7   c-1.2-3-2.4-6-3.6-9c-4.3-11.4-8.2-22.9-11.7-34.6c-7-23.4-12.6-47.3-16.9-71.4c-1.1-5.9-2.1-11.9-3-17.8c-0.5-2.9-0.9-5.8-1.3-8.6   c-0.3-1.7-0.5-3.5-0.7-5.2c-0.9-6.1,0.7,5.8,0-0.4c-1.7-13.2-3.1-26.4-4.2-39.7c-2.2-27.1-3.2-54.4-2.9-81.6   c0.2-27.6,1.7-55.1,4.4-82.5c0.6-6,1.3-12,2-17.9c0.2-1.7,1.2-11.4,0.5-3.9c0.3-3.5,1-7,1.5-10.5c1.9-12.4,4-24.8,6.5-37.1   c4.8-23.8,10.8-47.5,18.4-70.6c1.9-5.9,4-11.7,6.1-17.5c1-2.6,1.9-5.1,2.9-7.7c1-2.5,3.4-6.3,3.6-9c-0.4,1-0.9,2-1.3,3.1   c0.4-1,0.8-1.9,1.2-2.9c0.4-1,0.8-1.9,1.3-2.9c1.1-2.6,2.3-5.1,3.5-7.7c2.4-5.2,5-10.3,7.7-15.3c4.7-8.8,9.8-17.3,15.4-25.5   c1.3-2,2.7-3.9,4.1-5.9c0.5-0.7,1-1.4,1.5-2.1c2.9-3.9-3.9,4.8-0.8,1.1c2.8-3.5,5.6-6.9,8.7-10.2c2.7-3,5.6-5.9,8.5-8.6   c1.5-1.4,3-2.7,4.6-4.1c0.6-0.5,1.1-0.9,1.7-1.4c4.7-3.8-4.2,3-0.8,0.6c6-4.3,12.1-7.9,18.7-11.1c2.7-1.3-6.7,2.5-2.8,1.2   c0.9-0.3,1.8-0.7,2.7-1c1.5-0.5,3-1,4.5-1.4c1.5-0.4,3-0.8,4.6-1.1c2.9-0.6,9.1-0.5-0.2-0.2c3.4-0.1,6.8-0.6,10.3-0.5   c1.6,0,3.1,0.2,4.7,0.3c0.6,0,1.2,0.2,1.9,0.2c-8.8-0.3-4.5-0.6-2-0.2c3.1,0.6,6.1,1.4,9.1,2.3c1.7,0.5,3.3,1.2,5,1.8   c2.8,1-6.5-3-2.8-1.2c1,0.5,2.1,1,3.1,1.5c3.2,1.6,6.2,3.3,9.2,5.2c1.5,0.9,2.9,1.9,4.3,2.9c0.9,0.6,1.7,1.3,2.6,1.9   c-6.7-4.7-3.2-2.4-1.7-1.2c6.5,5.3,12.5,11.3,18,17.6c1.3,1.5,2.6,3.1,3.9,4.7c0.8,1,1.5,2,2.3,2.9c-4.5-5.5-2.6-3.4-1.6-2   c3.1,4.2,6.1,8.5,9,12.9c5.4,8.3,10.3,16.9,14.8,25.7c2.5,4.9,4.9,9.9,7.2,15c1.1,2.4,2.1,4.7,3.2,7.1c2.2,5-1.7-4.2-0.4-0.9   c0.7,1.7,1.4,3.5,2.1,5.2c9.1,22.9,16.4,46.5,22.3,70.4c3.1,12.5,5.8,25.1,8.2,37.7c1.1,6,2.2,11.9,3.1,17.9   c0.6,3.7,1.2,7.3,1.7,11c0.2,1.2,0.4,2.5,0.5,3.7c0.2,1.4,1.6,9.8,0.4,2.7c2.2,13.2,3.2,26.8,4.3,40.2c1.1,13,10.7,25.6,25,25   c12.6-0.6,26.2-11,25-25c-4.8-56.5-14-113-31.6-167c-14.6-44.8-34.6-89.9-66.5-125.2c-23.9-26.5-58.5-46.8-95.3-42.5   c-41.3,4.9-72.2,33.2-95.3,66.1c-28.2,40.1-45.5,88.4-57.7,135.5c-13.5,52.3-20.8,106.4-23.6,160.3c-3,58.5-0.3,117,7.8,175   c7,50.8,18.6,101.5,38.2,148.9c16.3,39.6,37.5,80.8,71.8,107.8c14.4,11.4,30.7,21,49,24.3c25.6,4.6,51.4-0.3,73.5-14.3   c11.8-7.5,22.5-16.8,31.9-27.1c8.8-9.7,10.3-25.9,0-35.4C569.4,815,553.1,813.4,543.7,823.8L543.7,823.8z"/><path d="M746.9,201.5c-6.8,6.7-13.7,13.2-21,19.4c-3.3,2.9-6.7,5.6-10.1,8.4c-1,0.8-2,1.6-3,2.4   c-2.8,2.2,5-3.8,0.8-0.6c-2.1,1.6-4.1,3.1-6.2,4.6c-15.2,11.2-31.3,21.2-48,30c-8.5,4.5-17.2,8.6-26.1,12.5   c-1.3,0.6-4.4,1.7,1.6-0.7c-1,0.4-1.9,0.8-2.9,1.2c-2.4,1-4.9,2-7.3,2.9c-4.4,1.7-8.8,3.3-13.3,4.9c-18.6,6.4-37.6,11.3-57,14.8   c-4.5,0.8-9,1.5-13.5,2.2c-3.7,0.6,6.6-0.8,1-0.1c-1.1,0.1-2.1,0.3-3.2,0.4c-2.7,0.3-5.4,0.6-8.1,0.9c-10.1,1-20.2,1.6-30.4,1.8   c-10.2,0.2-20.4,0-30.6-0.6c-4.6-0.3-9.3-0.6-13.9-1.1c-2.4-0.2-4.9-0.5-7.3-0.8c-1.1-0.1-2.2-0.3-3.2-0.4   c-1.1-0.1-2.1-0.3-3.2-0.4c1.1,0.2,2.3,0.3,3.4,0.5c-19.5-3.7-38.7-6.9-57.8-12.7c-9.1-2.7-18-5.8-26.9-9.2   c-2.2-0.8-4.4-1.7-6.6-2.6c-1.2-0.5-2.4-1.1-3.6-1.5c0.5,0.1,5.5,2.4,1.6,0.7c-4.5-2-9-4-13.5-6.2c-19.1-9.2-37.5-20-54.9-32.2   c-4.4-3.1-8.5-6.9-13.1-9.6c0.4,0.2,4.7,3.7,1.4,1.1c-1.2-1-2.4-1.9-3.6-2.9c-2-1.6-4-3.3-6-4.9c-8.3-7-16.2-14.3-23.9-21.9   c0,11.8,0,23.6,0,35.4c6.8-6.7,13.7-13.2,21-19.4c3.3-2.9,6.7-5.6,10.1-8.4c1-0.8,2-1.6,3-2.4c2.8-2.2-5,3.8-0.8,0.6   c2.1-1.6,4.1-3.1,6.2-4.6c15.2-11.2,31.3-21.2,48-30c8.5-4.5,17.2-8.6,26.1-12.5c1.3-0.6,4.4-1.7-1.6,0.7c1-0.4,1.9-0.8,2.9-1.2   c2.4-1,4.9-2,7.3-2.9c4.4-1.7,8.8-3.3,13.3-4.9c18.6-6.4,37.6-11.3,57-14.8c4.5-0.8,9-1.5,13.5-2.2c3.7-0.6-6.6,0.8-1,0.1   c1.1-0.1,2.1-0.3,3.2-0.4c2.7-0.3,5.4-0.6,8.1-0.9c10.1-1,20.2-1.6,30.4-1.8c10.2-0.2,20.4,0,30.6,0.6c4.6,0.3,9.3,0.6,13.9,1.1   c2.4,0.2,4.9,0.5,7.3,0.8c1.1,0.1,2.2,0.3,3.2,0.4c1.1,0.1,2.1,0.3,3.2,0.4c-1.1-0.2-2.3-0.3-3.4-0.5c19.5,3.7,38.7,6.9,57.8,12.7   c9.1,2.7,18,5.8,26.9,9.2c2.2,0.8,4.4,1.7,6.6,2.6c1.2,0.5,2.4,1.1,3.6,1.5c-0.5-0.1-5.5-2.4-1.6-0.7c4.5,2,9,4,13.5,6.2   c19.1,9.2,37.5,20,54.9,32.2c4.4,3.1,8.5,6.9,13.1,9.6c-0.4-0.2-4.7-3.7-1.4-1.1c1.2,1,2.4,1.9,3.6,2.9c2,1.6,4,3.3,6,4.9   c8.3,7,16.2,14.3,23.9,21.9c9.3,9.2,26.2,10,35.4,0c9.1-9.9,9.9-25.5,0-35.4C723.9,143.6,648.1,103.1,567,88.7   c-85.9-15.2-174.1-3.5-252.8,34.1c-41,19.6-78.7,46.7-110.9,78.7c-9.6,9.5-9.6,25.9,0,35.4c58.4,57.9,134.2,98.4,215.3,112.8   c85.9,15.2,174.1,3.5,252.8-34.1c41-19.6,78.7-46.7,110.9-78.7c9.3-9.2,9.9-26.2,0-35.4C772.2,192.3,756.8,191.6,746.9,201.5z"/><path d="M238.6,783c7.4-7.3,15-14.3,22.9-21.1c3.5-3,7.1-5.9,10.7-8.8c4.5-3.6-3.3,2.4-0.3,0.2   c0.9-0.7,1.8-1.4,2.8-2.1c2.3-1.7,4.6-3.4,7-5.1c16.5-11.8,33.9-22.2,52-31.3c4.3-2.2,8.7-4.2,13.1-6.2c2.1-0.9,4.2-1.8,6.3-2.8   c5.3-2.3-3.9,1.6-0.4,0.2c1.3-0.5,2.6-1.1,4-1.6c9.6-3.8,19.4-7.3,29.3-10.3c9.7-3,19.5-5.6,29.4-7.8c4.9-1.1,9.7-2.1,14.6-3   c5-0.9,10.6-2.5,15.7-2.5c-5.8,0.1-3,0.4-1.4,0.2c1.8-0.2,3.5-0.4,5.3-0.6c3-0.3,5.9-0.6,8.9-0.9c6-0.5,11.9-0.9,17.9-1.2   c12.6-0.5,25.1-0.4,37.7,0.2c13.1,0.7,25.6-12,25-25c-0.6-14.1-11-24.3-25-25c-88.9-4.6-179.3,20.2-252.6,70.9   c-20.7,14.3-40.3,30.4-58.2,48.1c-9.3,9.2-9.9,26.2,0,35.4C213.3,792.2,228.7,792.8,238.6,783L238.6,783z"/><path d="M898.3,430.7c-9.1-62.9-33.8-124.1-70.9-175.7c-36.9-51.4-84.9-94.5-140.7-124.4   C629.6,100.1,565.8,83.4,501.1,82c-65.1-1.4-129.8,13.2-188.3,41.5c-54.7,26.4-103.9,66-141.3,113.8c-39.1,50-67.5,108-80.2,170.4   c-13.2,64.5-11.4,132,6.4,195.4c17.1,60.9,48.5,117.2,90.7,164.2c42.3,47.1,95.4,83.1,154,106.6c60.8,24.5,128.7,33.5,193.9,26.2   c18.8-2.1,37.5-5.2,55.8-9.7c12.7-3.1,21.5-18.2,17.5-30.8c-4.3-13.2-17.1-20.8-30.8-17.5c-8.4,2-16.8,3.8-25.2,5.3   c-4,0.7-7.9,1.3-11.9,1.9c-0.9,0.1-4.9,0.8-1.3,0.2c3.4-0.5,0.3,0-0.4,0c-2.5,0.3-5,0.6-7.4,0.8c-17.1,1.7-34.3,2.4-51.5,1.8   c-7.7-0.2-15.4-0.7-23.1-1.4c-3.5-0.3-7.1-0.7-10.6-1.1c-1.7-0.2-8-1.2-0.6,0c-1.9-0.3-3.8-0.5-5.6-0.8   c-14.9-2.3-29.6-5.4-44.1-9.4c-14.3-3.9-28.3-8.7-42.1-14.2c-1.6-0.6-7.1-3.2-0.6-0.2c-1.4-0.7-2.9-1.2-4.3-1.9   c-3.6-1.6-7.2-3.2-10.7-4.9c-6.4-3-12.6-6.3-18.8-9.6c-12.8-7-25.1-14.7-37-23.1c-3-2.1-5.9-4.2-8.8-6.4c-1.2-0.9-2.5-1.9-3.7-2.8   c0.4,0.3,4.7,3.7,1.4,1c-0.8-0.6-1.6-1.3-2.4-1.9c-5.7-4.5-11.2-9.2-16.6-14.1c-10.8-9.6-21-19.9-30.6-30.7   c-4.8-5.4-9.5-10.9-13.9-16.6c-1-1.2-1.9-2.4-2.9-3.7c0.3,0.4,3.6,4.7,1.1,1.4c-0.5-0.6-0.9-1.2-1.4-1.9c-2.3-3.1-4.6-6.2-6.8-9.4   c-8.2-11.7-15.7-23.8-22.6-36.3c-3.5-6.4-6.8-12.9-9.9-19.4c-1.5-3.1-2.9-6.1-4.3-9.2c-0.3-0.7-2.8-6.6-1.2-2.8   c1.4,3.4,0.3,0.8,0,0.1c-0.5-1.2-1-2.4-1.5-3.6c-11-27.3-18.8-55.9-23.3-85c-0.1-0.8-1-7.4-0.5-3.1c0.5,4.1-0.2-1.9-0.4-3.1   c-0.4-3.8-0.8-7.6-1.2-11.4c-0.7-7.7-1.1-15.3-1.4-23c-0.5-15.4,0-30.9,1.4-46.3c0.3-3.5,0.7-7,1.1-10.6c0.2-1.9,0.5-3.8,0.7-5.6   c0-0.1-0.8,5.5-0.3,2.6c0.2-1.3,0.4-2.7,0.6-4c1.1-7.4,2.5-14.8,4.1-22.2c3.1-14.3,6.9-28.3,11.6-42.2c2.3-7,4.9-13.9,7.6-20.7   c0.7-1.7,1.6-3.4,2.1-5.1c0-0.1-2.1,4.9-1,2.4c0.4-1,0.8-1.9,1.3-2.9c1.5-3.3,3-6.7,4.6-10c6.2-13.1,13.2-25.9,20.9-38.2   c3.8-6.1,7.8-12.2,12-18.1c1.9-2.7,3.9-5.5,5.9-8.2c0.6-0.8,4.3-5.7,1.8-2.4c-2.4,3.1,1.2-1.5,1.9-2.3c9-11.3,18.6-22.1,28.8-32.3   c10.2-10.2,20.9-19.9,32.2-28.9c0.8-0.6,5.6-4.4,2.3-1.9c-3.1,2.4,1-0.8,1.8-1.3c3.1-2.3,6.2-4.6,9.4-6.8c5.9-4.2,11.9-8.2,18.1-12   c12.3-7.7,25.1-14.7,38.2-21c3.1-1.5,6.1-2.9,9.2-4.3c1.7-0.7,3.4-1.4,5-2.2c0.1-0.1-4.9,2-2.4,1c1-0.4,1.9-0.8,2.9-1.2   c6.8-2.8,13.7-5.3,20.6-7.7c14-4.8,28.3-8.8,42.8-11.9c7.3-1.6,14.7-3,22.1-4.1c1.9-0.3,3.8-0.5,5.6-0.8c0.1,0-5.5,0.7-2.6,0.4   c0.8-0.1,1.6-0.2,2.4-0.3c4-0.5,8.1-0.9,12.2-1.3c15.1-1.4,30.2-1.9,45.4-1.5c7.7,0.2,15.4,0.6,23,1.3c3.8,0.3,7.6,0.7,11.4,1.1   c1.6,0.2,3.2,0.4,4.8,0.6c4.4,0.5-1.3-0.2-1.8-0.2c1.1,0.2,2.1,0.3,3.2,0.5c29.4,4.4,58.2,12.2,85.8,23.2c1.5,0.6,2.9,1.2,4.4,1.8   c1.4,0.6,4.1,2.1-1.6-0.7c0.7,0.3,1.4,0.6,2.2,0.9c3.6,1.6,7.1,3.2,10.7,4.9c6.3,3,12.6,6.2,18.8,9.5c12.7,6.9,25.1,14.5,37,22.8   c2.8,1.9,5.5,3.9,8.2,5.9c1.5,1.1,2.9,2.2,4.3,3.2c0.6,0.5,1.2,0.9,1.8,1.4c-5.4-4-2-1.5-0.8-0.6c5.7,4.5,11.2,9.1,16.6,13.9   c10.7,9.5,21,19.6,30.6,30.3c5,5.5,9.8,11.2,14.4,17c1.2,1.4,2.3,2.9,3.5,4.4c1.7,2.2-1.5-2-1.5-1.9c0.6,0.9,1.3,1.7,1.9,2.5   c2.2,3,4.4,6,6.6,9c8.6,12.2,16.5,24.9,23.6,38c3.6,6.6,7,13.3,10.2,20c1.5,3.2,2.9,6.3,4.3,9.5c0.4,1,0.9,2,1.3,3   c1.1,2.6-1-2.3-0.9-2.3c0.7,2,1.6,4,2.4,6c5.6,14.1,10.3,28.6,14.2,43.3c3.8,14.4,6.7,29,8.9,43.7c0.8,5.8,6.7,12.1,11.5,14.9   c5.4,3.1,13.3,4.5,19.3,2.5c6-2,11.9-5.7,14.9-11.5C899.1,443.6,899.3,437.7,898.3,430.7L898.3,430.7z"/><path d="M107.5,517.2c31.3,0,62.6,0,94,0c28.5,0,56.9,0,85.4,0c31.6,0,63.2,0,94.8,0c35.8,0,71.6,0,107.4,0   c29,0,58.1,0,87.1,0c1.3,0,2.7,0,4,0c13.1,0,25.6-11.5,25-25c-0.6-13.5-11-25-25-25c-29.2,0-58.5,0-87.7,0c-31.3,0-62.5,0-93.8,0   c-36.1,0-72.2,0-108.4,0c-24,0-48,0-72,0c-36.2,0-72.5,0-108.7,0c-0.7,0-1.4,0-2.1,0c-13.1,0-25.6,11.5-25,25   C83.1,505.8,93.4,517.2,107.5,517.2L107.5,517.2z"/><path d="M892.1,660.6c0,6-0.4,12-1,18c-0.1,0.8-0.2,1.7-0.3,2.5c-0.3,2.8,0.5-4.1,0.5-3.5c0,1.4-0.4,3-0.7,4.3   c-0.5,3.1-1.1,6.2-1.8,9.3c-2.7,12.4-6.5,24.5-11.1,36.3c-0.6,1.4-1.1,2.8-1.7,4.2c-0.2,0.6-0.5,1.2-0.7,1.8   c-1.1,2.9,2.3-5.2,1-2.4c-1.3,3-2.7,6-4,9c-2.7,5.8-5.6,11.5-8.6,17.1c-6,11.2-12.6,22.1-19.5,32.7c-6.9,10.4-14.1,20.6-21.7,30.6   c-0.4,0.5-0.8,1-1.1,1.5c-1.8,2.4,3.5-4.5,1.7-2.2c-0.9,1.1-1.7,2.2-2.6,3.3c-1.8,2.3-3.7,4.7-5.6,7c-3.5,4.3-7.1,8.6-10.7,12.8   c-11.8,13.8-24.1,27.1-36.9,39.8c-6,6-12.1,11.9-18.4,17.5c11.8,0,23.6,0,35.4,0c-25.8-22.7-49.1-48.8-70.4-75.7   c-1.1-1.4-2.3-2.8-3.3-4.2c3.8,5.4,0.2,0.3-0.5-0.7c-2.2-2.9-4.4-5.9-6.6-8.9c-4.8-6.5-9.4-13.1-13.8-19.9   c-8.3-12.6-16.1-25.6-23-39c-3.4-6.7-6.6-13.4-9.6-20.3c-2.6-5.8,1.9,5-0.4-0.9c-0.7-1.7-1.4-3.4-2-5.2c-1.3-3.4-2.6-6.9-3.7-10.4   c-2.3-6.9-4.3-13.9-6-21c-0.8-3.5-1.5-7-2.2-10.6c-0.3-1.5-1-3.7-0.9-5.3c0.5,3.7,0.5,4.2,0.2,1.3c-0.1-1.2-0.3-2.4-0.4-3.5   c-0.6-6.7-0.9-13.4-0.7-20c0.1-2.5,0.2-5,0.4-7.4c0.1-1.5,0.3-2.9,0.4-4.4c0.8-7.1-0.7,3.8,0.1-0.6c1-5.7,2.1-11.4,3.7-17   c0.8-2.8,1.6-5.5,2.6-8.2c0.5-1.4,0.9-2.7,1.4-4c0.7-1.8,3.8-7.6,0.1-0.6c5.3-10.1,10-20,16.7-29.3c1.2-1.6,4.4-4.4-0.5,0.6   c1-1,1.8-2.2,2.6-3.3c1.8-2.1,3.6-4.2,5.6-6.3c3.8-4.1,7.9-8,12.1-11.6c1.1-0.9,2.2-1.8,3.2-2.7c4-3.3-4.8,3.5-0.6,0.5   c2.3-1.7,4.5-3.3,6.9-4.9c5.1-3.4,10.4-6.5,15.8-9.2c2.2-1.1,5.9-2,7.7-3.6c-0.9,0.4-1.9,0.8-2.8,1.2c1.1-0.4,2.1-0.9,3.2-1.3   c1.6-0.6,3.2-1.2,4.9-1.8c6.6-2.3,13.4-4,20.2-5.4c1.7-0.3,3.5-0.6,5.2-0.9c6.1-1.1-5.8,0.5,0.4,0c3.6-0.3,7.2-0.6,10.8-0.8   c7.5-0.3,14.9,0.2,22.4,0.8c5.9,0.5-5.8-1,0,0c1.6,0.3,3.3,0.5,4.9,0.9c2.7,0.5,5.4,1.1,8.1,1.8c1.7,0.4,20.2,6.4,20.1,6.6   c-1-0.4-2-0.8-3-1.3c1,0.4,2,0.9,2.9,1.3c2,0.9,3.9,1.8,5.8,2.8c3.3,1.7,6.6,3.5,9.8,5.5c3.2,1.9,6.3,4,9.3,6.2   c0.3,0.2,3.7,2.9,3.8,2.8c-3-2.3-3.4-2.6-1.3-0.9c0.4,0.3,0.8,0.7,1.2,1c5.4,4.5,10.5,9.4,15.2,14.6c2.2,2.4,4.3,6,6.8,8   c-0.7-0.9-1.4-1.8-2.1-2.7c0.6,0.8,1.2,1.6,1.8,2.4c1.2,1.6,2.3,3.3,3.5,5c3.6,5.5,6.9,11.2,9.8,17.1c0.7,1.4,1.3,2.7,2,4.1   c0.4,0.9,0.8,1.9,1.2,2.8c-1.5-3.6-1.8-4.2-0.8-1.7c1.2,3.4,2.5,6.7,3.6,10.1c2.2,7,3.7,14,5,21.2c1,5.6-0.6-6.1,0-0.4   c0.2,2.1,0.4,4.2,0.6,6.3C891.9,653.1,892,656.9,892.1,660.6c0.1,13.1,11.4,25.6,25,25c13.5-0.6,25.1-11,25-25   c-0.3-60.9-32.3-118.1-84.2-150c-54.7-33.7-126.6-33.9-181.6-0.8c-48.9,29.4-79.9,80.8-84.9,137.4c-2.8,31.3,3.9,63.5,15.2,92.6   c12.3,31.9,29,61.6,48.7,89.5c26.7,37.8,57.5,73.6,91.8,104.8c0.6,0.5,1.2,1.1,1.7,1.6c10.6,9.4,24.7,9.4,35.4,0   c18.5-16.3,35.6-34.6,51.7-53.2c35.1-40.3,66.1-84.3,86.9-133.8c11.7-27.8,19.2-57.7,19.3-88.1c0.1-13.1-11.5-25.6-25-25   C903.5,636.2,892.1,646.6,892.1,660.6z"/><path d="M779,660.6c0,0.9-0.1,1.8-0.1,2.7c0,2.6-1.5,1.3,0.4-2.6c-0.6,1.2-0.8,3.2-1.1,4.5c-1.3,5,2.4-4.1,0.3-0.5   c-0.9,1.5-1.7,3-2.6,4.5c-1.9,3.3,1.2-1.8,1.6-2c-0.5,0.3-1.2,1.4-1.7,1.9c-0.8,0.9-4.8,4.1-1.3,1.5c3.7-2.7-0.8,0.4-1.7,1   c-0.7,0.4-1.5,0.8-2.3,1.2c-3.5,2,4.6-1.2,1.8-0.7c-1.4,0.2-3,0.8-4.4,1.3c-4,1.2,2.6-0.2,2.7-0.2c-0.6,0.2-2.2,0.2-2.7,0.2   c-1.6,0.1-3.2-0.1-4.8-0.1c-2.8-0.1,3.8,0.3,3.3,0.4c-0.6,0.2-2.5-0.5-3.2-0.7c-0.8-0.2-1.7-0.6-2.5-0.8c-2.3-0.4,2.9,1.3,2.9,1.3   c-1.3-1-3.2-1.6-4.6-2.5c-0.6-0.4-1.5-1.2-2.1-1.5c0.1,0,4,3.6,2.6,1.9c-0.8-1-2.9-3.5-4.1-4.1c0,0,3.1,4.6,1.9,2.5   c-0.4-0.7-1-1.4-1.4-2.2c-0.8-1.3-1.3-2.8-2.1-4c3.1,4.4,1.6,4.5,1.1,2.3c-0.2-0.9-0.5-1.7-0.7-2.5c-0.2-0.6-0.2-1.4-0.4-1.9   c-1.1-2.7,0.3,6.2,0.3,2c0-1.6-0.1-3.2,0-4.8c0.3-5.8-1.3,4.5-0.1,0.6c0.4-1.3,1.5-3.8,1.5-5.1c0,0.4-2.9,5.7-1,2.4   c0.4-0.7,0.8-1.5,1.2-2.3c0.4-0.7,0.9-1.4,1.4-2.2c1.3-2.1,1.9-0.4-1.6,2c1.1-0.7,2.2-2.3,3.1-3.3c3.6-3.7-4,2.4-0.5,0.3   c1.6-1,3.4-1.9,5-2.9c2-1.3-3,1.2-3,1.2c0.6,0,1.8-0.6,2.5-0.8c1.2-0.4,6.4-1.2,1.9-0.7c-4.8,0.6,1,0,2.1,0c0.9,0,1.8,0.1,2.7,0.1   c4.3,0.1-4.8-1.2-2-0.3c1.3,0.4,4.3,1.6,5.7,1.6c0,0-4.9-2.5-3-1.2c0.9,0.6,1.9,1,2.9,1.5c0.7,0.4,1.4,0.9,2.2,1.4   c2.9,1.7-1.6-1-2-1.6c0.7,1.2,3.1,3.1,4.1,4.1c2.2,2-2.9-4.7-1.5-2c0.5,0.9,1.2,1.8,1.8,2.7c0.3,0.6,0.6,1.1,0.9,1.7   c2.2,3.6-0.6-0.4-0.7-1.8c0,1.5,1,3.6,1.5,5.1c1.2,3.9-0.2-2.6-0.2-2.7C779.3,657.6,779,659.5,779,660.6c0.2,13.1,11.3,25.6,25,25   c13.3-0.6,25.3-11,25-25c-0.5-27.1-17.4-50.3-42.9-59.4c-23-8.2-51.6-0.6-67.1,18.5c-16.7,20.6-20.5,49.1-6.8,72.5   c13.8,23.6,41,34.5,67.5,29.5c28.8-5.5,48.7-32.7,49.2-61.1c0.2-13.1-11.7-25.6-25-25C790.3,636.2,779.3,646.6,779,660.6z"/></g><text x="0" y="1039" fill="#000000" font-size="5px" font-weight="bold" font-family="'Helvetica Neue', Helvetica, Arial-Unicode, Arial, Sans-serif">Created by shashank singh</text><text x="0" y="1044" fill="#000000" font-size="5px" font-weight="bold" font-family="'Helvetica Neue', Helvetica, Arial-Unicode, Arial, Sans-serif">from the Noun Project</text></svg>